<?xml version="1.0" ?><!DOCTYPE svg  PUBLIC '-//W3C//DTD SVG 1.1//EN'  'http://www.w3.org/Graphics/SVG/1.1/DTD/svg11.dtd'><svg enable-background="new 0 0 48 48" height="48px" id="Layer_3" version="1.1" viewBox="0 0 48 48" width="48px" xml:space="preserve" xmlns="http://www.w3.org/2000/svg" xmlns:xlink="http://www.w3.org/1999/xlink"><g><path d="M23.949,23.416c6.466,0,11.708-5.242,11.708-11.708C35.657,5.242,30.415,0,23.949,0   c-6.466,0-11.708,5.242-11.708,11.708C12.241,18.174,17.483,23.416,23.949,23.416z M24,4.5c3.912,0,7.083,3.171,7.083,7.083   c0,3.912-3.171,7.083-7.083,7.083s-7.083-3.171-7.083-7.083C16.917,7.671,20.088,4.5,24,4.5z" fill="#241F20"/><path d="M34.165,23.252c-2.724,2.412-6.293,3.889-10.216,3.889c-3.905,0-7.46-1.463-10.179-3.854   C6.679,27.157,1.834,34.921,1.834,43.874c0,1.409,0.127,2.786,0.356,4.126h1.894h2.679h34.476h2.512h2.061   c0.229-1.34,0.355-2.717,0.355-4.126C46.166,34.895,41.292,27.109,34.165,23.252z M6.083,44.083C6.06,43.725,6.042,43.364,6.042,43   c0-3.75,1.167-7.218,3.135-10.097l-0.005-0.002c0,0,0.052-0.077,0.141-0.205c0.056-0.08,0.111-0.16,0.169-0.239   c0.592-0.823,1.967-2.615,3.527-3.832c5.035,2.517,9.836,2.699,10.847,2.709h0.296c1.011-0.01,5.813-0.192,10.847-2.709   c2.084,1.625,3.837,4.276,3.837,4.276l-0.012,0.005c1.967,2.878,3.133,6.345,3.133,10.094c0,0.364-0.018,0.725-0.04,1.083H6.083z" fill="#241F20"/></g></svg>