<svg width="154" height="163" viewBox="0 0 154 163" fill="none" xmlns="http://www.w3.org/2000/svg">
<path d="M77.4054 135.634L77.8527 136.529L77.8527 136.529L77.4054 135.634ZM76.5947 135.634L77.042 134.74L77.042 134.74L76.5947 135.634ZM120.917 74.7083C120.917 93.137 111.111 107.566 100.643 117.719C90.1791 127.868 79.1528 133.642 76.9581 134.74L77.8527 136.529C80.1339 135.388 91.3633 129.506 102.036 119.154C112.705 108.807 122.917 93.8925 122.917 74.7083H120.917ZM77 28.1667C101.202 28.1667 120.917 48.9498 120.917 74.7083H122.917C122.917 47.9538 102.412 26.1667 77 26.1667V28.1667ZM33.0834 74.7083C33.0834 48.9498 52.7983 28.1667 77 28.1667V26.1667C51.5882 26.1667 31.0834 47.9538 31.0834 74.7083H33.0834ZM77.042 134.74C74.8473 133.642 63.821 127.868 53.3568 117.719C42.8891 107.566 33.0834 93.137 33.0834 74.7083H31.0834C31.0834 93.8925 41.2953 108.807 51.9643 119.154C62.6368 129.506 73.8661 135.388 76.1474 136.529L77.042 134.74ZM76.9581 134.74C76.9522 134.743 76.9538 134.741 76.9626 134.739C76.9716 134.737 76.9846 134.735 77 134.735C77.0155 134.735 77.0284 134.737 77.0375 134.739C77.0463 134.741 77.0479 134.743 77.042 134.74L76.1473 136.529C76.6972 136.804 77.3029 136.804 77.8527 136.529L76.9581 134.74ZM95.25 74.7083C95.25 85.4631 87.0265 94.0833 77 94.0833V96.0833C88.2366 96.0833 97.25 86.4591 97.25 74.7083H95.25ZM77 55.3333C87.0265 55.3333 95.25 63.9535 95.25 74.7083H97.25C97.25 62.9575 88.2366 53.3333 77 53.3333V55.3333ZM58.75 74.7083C58.75 63.9535 66.9736 55.3333 77 55.3333V53.3333C65.7635 53.3333 56.75 62.9575 56.75 74.7083H58.75ZM77 94.0833C66.9736 94.0833 58.75 85.4631 58.75 74.7083H56.75C56.75 86.4591 65.7635 96.0833 77 96.0833V94.0833Z" fill="#33363F"/>
</svg>
