<svg xmlns="http://www.w3.org/2000/svg" viewBox="0 0 32 40" x="0px" y="0px"><g><path d="M11.55,17.93a1,1,0,0,1,1.6-1.21l1.55,2.05,4.17-5.28a1,1,0,0,1,1.4-.16,1,1,0,0,1,.17,1.4l-5,6.3a1,1,0,0,1-.78.38h0a1,1,0,0,1-.79-.4ZM16.1,5.27l.82-.82A1,1,0,0,0,15.5,3L13,5.55A1,1,0,0,0,13,7L15.5,9.49a1,1,0,0,0,.71.29,1,1,0,0,0,.71-.29,1,1,0,0,0,0-1.41l-.81-.81a10,10,0,1,1-6.11,2,1,1,0,0,0-1.21-1.6A12,12,0,1,0,16.1,5.27Z"/></g><text x="0" y="47" fill="#000000" font-size="5px" font-weight="bold" font-family="'Helvetica Neue', Helvetica, Arial-Unicode, Arial, Sans-serif">Created by The Icon Z</text><text x="0" y="52" fill="#000000" font-size="5px" font-weight="bold" font-family="'Helvetica Neue', Helvetica, Arial-Unicode, Arial, Sans-serif">from the Noun Project</text></svg>