<svg xmlns="http://www.w3.org/2000/svg" xmlns:xlink="http://www.w3.org/1999/xlink" version="1.1" x="0px" y="0px" viewBox="0 0 245.979 295.28625" style="enable-background:new 0 0 245.979 236.229;" xml:space="preserve"><g><path d="M180.63,130.582l-7.403-21.591c-0.233-0.677-0.611-1.28-1.089-1.791c-0.333,4.982-4.355,9.054-9.464,9.316   c-1.263,0.063-2.507,0.096-3.698,0.096h-0.113c-3.397-0.001-6.626-0.251-9.691-0.705c-0.015,0.627,0.082,1.267,0.317,1.89   c0.975,2.583,3.859,3.885,6.444,2.91v-0.002l9.506-3.593l22.558,65.787c3.905-4.268,8.839-7.511,14.469-9.42   c3.62-1.227,7.381-1.852,11.172-1.852c12.078,0,23.053,6.229,29.339,16.102c3.74-0.179,4.698-2.369-1.312-10.2   c-9.69-12.627-23.169-15.075-32.649-14.948c-0.595-1.604-1.21-3.28-1.851-5.052C201.356,141.467,188.309,133.817,180.63,130.582z"/><path d="M135.302,31.518c0,0.067,0.002,0.136,0.008,0.213c0.256,4.838,1.357,8.208,1.373,11.551   c0.004,1.724-0.329,3.445-1.267,5.186c-0.091,0.17-0.238,0.316-0.411,0.408c-2.752,1.472-5.709,1.934-8.717,1.934   c-2.628-0.002-5.311-0.345-8.019-0.699c-2.527-0.329-4.758-0.849-6.748-1.557c3.056,3.954,7.44,6.921,12.687,8.142   c12.1,2.818,24.191-4.707,27.012-16.806c1.246-5.353,0.465-10.704-1.839-15.252c-4.028,0.494-9.45,1.497-12.186,3.61   C135.946,29.207,135.313,30.215,135.302,31.518z"/><path d="M99.58,78.626l-0.006-0.014l-0.043-0.092c-1.107-2.431-1.199-5.149-0.262-7.649c0.937-2.5,2.794-4.487,5.224-5.591   c1.312-0.599,2.704-0.9,4.136-0.9c3.913,0,7.487,2.3,9.106,5.86l0.049,0.099c0.074,0.151,0.197,0.394,0.369,0.715   c0.348,0.656,0.935,1.701,1.751,2.974c0.954,1.494,2.336,3.474,4.132,5.626c1.803-9.451-1.997-19.875-9.927-21.85   c-8.537-2.129-20.912,2.508-25.947,17.149c-6.805,20.175-8.268,33.306-5.682,55.521c2.501,12.87,10.054,16.505,17.664,17.387   c0.034,0.006,0.066,0.016,0.1,0.021l37.921,5.896l14.205,36.006c1.939,4.916,6.648,7.916,11.631,7.916   c1.526,0,3.079-0.281,4.585-0.875c6.42-2.534,9.572-9.794,7.04-16.214l-16.834-42.668c-1.626-4.118-5.335-7.085-9.707-7.765   l-31.419-4.887c-0.163-7.373,0.649-15.009,1.81-22.284c-2.297-1.806-4.332-3.645-6.102-5.414   C104.932,89.188,100.683,80.951,99.58,78.626z"/><path d="M158.864,114.612c0.039,0,0.074,0,0.113,0c1.189,0,2.387-0.033,3.595-0.094c4.413-0.226,7.808-3.983,7.583-8.395   c-0.225-4.413-3.985-7.807-8.395-7.582c-0.957,0.049-1.884,0.072-2.783,0.072c-15.327-0.033-25.739-6.751-32.919-13.797   c-3.544-3.512-6.155-7.079-7.836-9.708c-0.841-1.314-1.45-2.396-1.833-3.11c-0.19-0.358-0.326-0.624-0.403-0.786   c-0.033-0.066-0.056-0.115-0.071-0.143h0.001c-1.831-4.022-6.573-5.799-10.594-3.968c-4.023,1.828-5.799,6.57-3.97,10.592   c0.266,0.551,4.29,9.382,13.44,18.485C123.843,105.229,138.568,114.611,158.864,114.612z"/><path d="M73.832,141.858v-62.27c0-2.947-2.389-5.337-5.336-5.337H5.336C2.389,74.252,0,76.642,0,79.589v62.27   c0,2.948,2.389,5.337,5.336,5.337h63.16C71.443,147.196,73.832,144.807,73.832,141.858z"/><path d="M93.746,196.862c-5.284-15.582-22.197-23.932-37.781-18.648c-15.582,5.283-23.932,22.199-18.648,37.781   c5.283,15.582,22.197,23.932,37.781,18.649C90.68,229.36,99.029,212.444,93.746,196.862z M69.31,217.575   c-6.156,2.088-12.84-1.213-14.926-7.367c-2.086-6.156,1.213-12.84,7.367-14.926c6.156-2.088,12.84,1.213,14.926,7.367   C78.766,208.805,75.467,215.487,69.31,217.575z"/><path d="M198.166,128.904c8.421,0,8.421-30.5,0-30.5c-8.422,0-15.25,6.827-15.25,15.25   C182.916,122.077,189.744,128.904,198.166,128.904z"/><path d="M179.233,201.196h-63.759c-5.512-11.121-7.408-22.474-8.036-29.859c1.637-0.501,2.835-2.007,2.835-3.808v-11   c0-2.209-1.791-4-4-4h-81.5c-2.209,0-4,1.791-4,4v11c0,2.209,1.791,4,4,4h0.441c-4.344,10.659-11.048,29.136-11.048,41.667   c0,0,6.796,0,17.242,0c-1.5-7.483-0.51-15.209,2.924-22.166c4.115-8.333,11.227-14.568,20.027-17.55   c3.623-1.23,7.381-1.851,11.174-1.851c14.916,0,28.156,9.494,32.947,23.629c2.03,5.985,2.32,12.145,1.161,17.938   c2.394,0,4.74,0,7.025,0c6.027,0,11.626,0,16.5,0h56.35C178.717,209.213,178.624,205.164,179.233,201.196z"/><path d="M204.072,178.213c-15.582,5.283-23.932,22.199-18.648,37.781c5.283,15.582,22.197,23.932,37.781,18.649   c15.582-5.283,23.932-22.199,18.648-37.781C236.57,181.28,219.656,172.93,204.072,178.213z M217.418,217.575   c-6.156,2.088-12.84-1.213-14.926-7.367c-2.086-6.156,1.213-12.84,7.367-14.926c6.156-2.088,12.84,1.213,14.926,7.367   C226.873,208.805,223.574,215.487,217.418,217.575z"/><path d="M151.872,22.368c-0.427-3.037-1.386-5.929-2.793-8.569c-3.821-7.169-10.917-12.444-19.584-13.578   C128.352,0.071,127.216,0,126.093,0c-0.001,0-0.002,0-0.004,0c-12.854,0-24.034,9.539-25.742,22.635   c-0.148,1.139-0.222,2.271-0.222,3.388c0,1.546,0.138,3.067,0.404,4.554c0.987,5.541,2.655,9.52,5.419,12.3   c2.762,2.778,6.719,4.482,12.581,5.252c2.702,0.354,5.31,0.683,7.759,0.68c2.706,0,5.203-0.395,7.502-1.554   c0.664-1.338,0.889-2.578,0.893-3.972c0.016-2.86-1.085-6.361-1.369-11.437c-0.008-0.108-0.01-0.217-0.012-0.327   c-0.008-2.059,1.134-3.713,2.689-4.866c1.562-1.174,3.577-1.98,5.701-2.588C145.364,23.021,149.402,22.597,151.872,22.368z"/></g><text x="0" y="251.229" fill="#000000" font-size="5px" font-weight="bold" font-family="'Helvetica Neue', Helvetica, Arial-Unicode, Arial, Sans-serif">Created by Gan Khoon Lay</text><text x="0" y="256.22900000000004" fill="#000000" font-size="5px" font-weight="bold" font-family="'Helvetica Neue', Helvetica, Arial-Unicode, Arial, Sans-serif">from the Noun Project</text></svg>