<svg width="20" height="21" viewBox="0 0 20 21" fill="none" xmlns="http://www.w3.org/2000/svg">
<path d="M4.16675 12.5585C4.16675 11.5494 4.16675 11.0448 4.38841 10.6141C4.61008 10.1833 5.02065 9.89007 5.8418 9.30353L8.83761 7.16367C9.39895 6.76271 9.67962 6.56223 10.0001 6.56223C10.3205 6.56223 10.6012 6.76271 11.1626 7.16367L14.1584 9.30353C14.9795 9.89007 15.3901 10.1833 15.6118 10.6141C15.8334 11.0448 15.8334 11.5494 15.8334 12.5585V16C15.8334 16.9428 15.8334 17.4142 15.5405 17.7071C15.2476 18 14.7762 18 13.8334 18H6.16675C5.22394 18 4.75253 18 4.45964 17.7071C4.16675 17.4142 4.16675 16.9428 4.16675 16V12.5585Z" fill="#7E869E" fill-opacity="0.25"/>
<path d="M2.5 10.7199C2.5 10.9868 2.5 11.1202 2.5841 11.1614C2.66819 11.2025 2.77352 11.1206 2.98418 10.9567L8.77212 6.45501C9.36197 5.99624 9.65689 5.76686 10 5.76686C10.3431 5.76686 10.638 5.99624 11.2279 6.45501L17.0158 10.9567C17.2265 11.1206 17.3318 11.2025 17.4159 11.1614C17.5 11.1202 17.5 10.9868 17.5 10.7199V10.6448C17.5 10.1645 17.5 9.9243 17.3983 9.71639C17.2966 9.50849 17.107 9.36103 16.7279 9.06612L11.2279 4.78835C10.638 4.32958 10.3431 4.10019 10 4.10019C9.65689 4.10019 9.36197 4.32958 8.77212 4.78835L3.27212 9.06612C2.89295 9.36103 2.70337 9.50849 2.60168 9.71639C2.5 9.9243 2.5 10.1645 2.5 10.6448V10.7199Z" fill="#222222"/>
<path d="M10.0834 13H9.91675C8.81218 13 7.91675 13.8954 7.91675 15V17.85C7.91675 17.9328 7.98391 18 8.06675 18H11.9334C12.0163 18 12.0834 17.9328 12.0834 17.85V15C12.0834 13.8954 11.188 13 10.0834 13Z" fill="#222222"/>
<rect x="13.3333" y="4.66667" width="1.66667" height="3.33333" rx="0.5" fill="#222222"/>
</svg>
