<svg width="29" height="29" viewBox="0 0 29 29" fill="none" xmlns="http://www.w3.org/2000/svg">
<path fill-rule="evenodd" clip-rule="evenodd" d="M14.6331 23.9973C16.2715 23.1579 22.4012 19.6211 22.4012 13.6921C22.4012 9.18176 18.7449 5.52542 14.2345 5.52542C9.72421 5.52542 6.06787 9.18176 6.06787 13.6921C6.06787 19.6211 12.1976 23.1579 13.8359 23.9973C14.0895 24.1272 14.3796 24.1272 14.6331 23.9973ZM14.2345 17.1921C16.1675 17.1921 17.7345 15.6251 17.7345 13.6921C17.7345 11.7591 16.1675 10.1921 14.2345 10.1921C12.3015 10.1921 10.7345 11.7591 10.7345 13.6921C10.7345 15.6251 12.3015 17.1921 14.2345 17.1921Z" fill="white"/>
</svg>
